//+
Point(1) = {-0.05, -0.05, 0, 1.0};
//+
Point(2) = {-0.05, 0.05, 0, 1.0};
//+
Point(3) = {0.05, 0.05, 0, 1.0};
//+
Point(4) = {0.05, -0.05, 0, 1.0};
//+
Point(5) = {-0.05, -0.05, 0.1, 1.0};
//+
Point(6) = {-0.05, 0.05, 0.1, 1.0};
//+
Point(7) = {0.05, 0.05, 0.1, 1.0};
//+
Point(8) = {0.05, -0.05, 0.1, 1.0};
//+
Point(9) = {-10, -5, 0, 1.0};
//+
Point(10) = {-10, 5, 0, 1.0};
//+
Point(11) = {10, 5, 0, 1.0};
//+
Point(12) = {10, -5, 0, 1.0};
//+
Point(13) = {-10, -5, 5, 1.0};
//+
Point(14) = {-10, 5, 5, 1.0};
//+
Point(15) = {10, 5, 5, 1.0};
//+
Point(16) = {10, -5, 5, 1.0};
//+
Point(17) = {-0.05, -0.05, 1.7, 1.0};
//+
Point(18) = {-0.05, 0.05, 1.7, 1.0};
//+
Point(19) = {0.05, 0.05, 1.7, 1.0};
//+
Point(20) = {0.05, -0.05, 1.7, 1.0};
//+
Point(21) = {-0.05, -0.35, 3.3, 1.0};
//+
Point(22) = {-0.05, -0.25, 3.3, 1.0};
//+
Point(23) = {0.05, -0.25, 3.3, 1.0};
//+
Point(24) = {0.05, -0.35, 3.3, 1.0};
//+
Point(25) = {-0.05, -0.4, 5, 1.0};
//+
Point(26) = {-0.05, -0.3, 5, 1.0};
//+
Point(27) = {0.05, -0.3, 5, 1.0};
//+
Point(28) = {0.05, -0.4, 5, 1.0};
//+
Point(29) = {-0.05, -0.644117659, 15, 1.0};
//+
Point(30) = {-0.05, -0.544117659, 15, 1.0};
//+
Point(31) = {0.05, -0.544117659, 15, 1.0};
//+
Point(32) = {0.05, -0.644117659, 15, 1.0};
//+
Point(33) = {-0.05, -0.694117659, 16.7, 1.0};
//+
Point(34) = {-0.05, -0.594117659, 16.7, 1.0};
//+
Point(35) = {0.05, -0.594117659, 16.7, 1.0};
//+
Point(36) = {0.05, -0.694117659, 16.7, 1.0};
//+
Point(37) = {-0.05, -0.394117647, 18.3, 1.0};
//+
Point(38) = {-0.05, -0.294117647, 18.3, 1.0};
//+
Point(39) = {0.05, -0.294117647, 18.3, 1.0};
//+
Point(40) = {0.05, -0.394117647, 18.3, 1.0};
//+
Point(41) = {-0.05, -0.444117647, 20, 1.0};
//+
Point(42) = {-0.05, -0.344117647, 20, 1.0};
//+
Point(43) = {0.05, -0.344117647, 20, 1.0};
//+
Point(44) = {0.05, -0.444117647, 20, 1.0};
//+
Point(45) = {-10, -5, 15, 1.0};
//+
Point(46) = {-10, -5, 15, 1.0};
//+
Point(47) = {-10, 5, 15, 1.0};
//+
Point(48) = {10, 5, 15, 1.0};
//+
Point(49) = {10, -5, 15, 1.0};
//+
Point(50) = {-10, -5, 20, 1.0};
//+
Point(51) = {-10, 5, 20, 1.0};
//+
Point(52) = {10, 5, 20, 1.0};
//+
Point(53) = {10, -5, 20, 1.0};
//+
Point(54) = {-0.05, -0.444117647, 20.1, 1.0};
//+
Point(55) = {-0.05, -0.344117647, 20.1, 1.0};
//+
Point(56) = {0.05, -0.344117647, 20.1, 1.0};
//+
Point(57) = {0.05, -0.444117647, 20.1, 1.0};
//+
Point(58) = {-0.06, -0.06, 0, 1.0};
//+
Point(59) = {-0.06, 0.06, 0, 1.0};
//+
Point(60) = {0.06, 0.06, 0, 1.0};
//+
Point(61) = {0.06, -0.06, 0, 1.0};
//+
Point(62) = {-0.06, -0.06, 0.1, 1.0};
//+
Point(63) = {-0.06, 0.06, 0.1, 1.0};
//+
Point(64) = {0.06, 0.06, 0.1, 1.0};
//+
Point(65) = {0.06, -0.06, 0.1, 1.0};
//+
Point(66) = {-0.06, -0.06, 1.7, 1.0};
//+
Point(67) = {-0.06, 0.06, 1.7, 1.0};
//+
Point(68) = {0.06, 0.06, 1.7, 1.0};
//+
Point(69) = {0.06, -0.06, 1.7, 1.0};
//+
Point(70) = {-0.06, -0.36, 3.3, 1.0};
//+
Point(71) = {-0.06, -0.24, 3.3, 1.0};
//+
Point(72) = {0.06, -0.24, 3.3, 1.0};
//+
Point(73) = {0.06, -0.36, 3.3, 1.0};
//+
Point(74) = {-0.06, -0.41, 5, 1.0};
//+
Point(75) = {-0.06, -0.29, 5, 1.0};
//+
Point(76) = {0.06, -0.29, 5, 1.0};
//+
Point(77) = {0.06, -0.41, 5, 1.0};
//+
Point(78) = {-0.06, -0.65117647, 15, 1.0};
//+
Point(79) = {-0.06, -0.53117647, 15, 1.0};
//+
Point(80) = {-0.06, -0.53117647, 15, 1.0};
//+
Point(81) = {-0.06, -0.53117647, 15, 1.0};
//+
Point(82) = {0.06, -0.53117647, 15, 1.0};
//+
Point(83) = {0.06, -0.65117647, 15, 1.0};
//+
Point(84) = {-0.06, -0.704117647, 16.7, 1.0};
//+
Point(85) = {-0.06, -0.584117647, 16.7, 1.0};
//+
Point(86) = {0.06, -0.584117647, 16.7, 1.0};
//+
Point(87) = {0.06, -0.704117647, 16.7, 1.0};
//+
Point(88) = {-0.06, -0.404117647, 18.3, 1.0};
//+
Point(89) = {-0.06, -0.284117647, 18.3, 1.0};
//+
Point(90) = {0.06, -0.284117647, 18.3, 1.0};
//+
Point(91) = {0.06, -0.404117647, 18.3, 1.0};
//+
Point(92) = {-0.06, -0.454117647, 20, 1.0};
//+
Point(93) = {-0.06, -0.334117647, 20, 1.0};
//+
Point(94) = {0.06, -0.334117647, 20, 1.0};
//+
Point(95) = {0.06, -0.454117647, 20, 1.0};

Line(1) = {9, 10};
//+
Line(2) = {10, 11};
//+
Line(3) = {11, 12};
//+
Line(4) = {12, 9};
//+
Line(5) = {13, 14};
//+
Line(6) = {14, 15};
//+
Line(7) = {15, 16};
//+
Line(8) = {16, 13};
//+
Line(9) = {45, 47};
//+
Line(10) = {47, 48};
//+
Line(11) = {48, 49};
//+
Line(12) = {49, 45};
//+
Line(13) = {50, 51};
//+
Line(14) = {51, 52};
//+
Line(15) = {52, 53};
//+
Line(16) = {53, 50};
//+
Line(17) = {9, 13};
//+
Line(18) = {10, 14};
//+
Line(19) = {11, 15};
//+
Line(20) = {12, 16};
//+
Line(21) = {13, 45};
//+
Line(22) = {14, 47};
//+
Line(23) = {15, 48};
//+
Line(24) = {16, 49};
//+
Line(25) = {45, 50};
//+
Line(26) = {47, 51};
//+
Line(27) = {48, 52};
//+
Line(28) = {49, 53};
//+
Line(29) = {1, 2};
//+
Line(30) = {2, 3};
//+
Line(31) = {3, 4};
//+
Line(32) = {4, 1};
//+
Line(33) = {5, 6};
//+
Line(34) = {6, 7};
//+
Line(35) = {7, 8};
//+
Line(36) = {8, 5};
//+
Line(37) = {17, 18};
//+
Line(38) = {18, 19};
//+
Line(39) = {19, 20};
//+
Line(40) = {20, 17};
//+
Line(41) = {21, 22};
//+
Line(42) = {22, 23};
//+
Line(43) = {23, 24};
//+
Line(44) = {24, 21};
//+
Line(45) = {25, 26};
//+
Line(46) = {26, 27};
//+
Line(47) = {27, 28};
//+
Line(48) = {28, 25};
//+
Line(49) = {29, 30};
//+
Line(50) = {30, 31};
//+
Line(51) = {31, 32};
//+
Line(52) = {32, 29};
//+
Line(53) = {33, 34};
//+
Line(54) = {34, 35};
//+
Line(55) = {35, 36};
//+
Line(56) = {36, 33};
//+
Line(57) = {37, 38};
//+
Line(58) = {38, 39};
//+
Line(59) = {39, 40};
//+
Line(60) = {40, 37};
//+
Line(61) = {41, 42};
//+
Line(62) = {42, 43};
//+
Line(63) = {43, 44};
//+
Line(64) = {44, 41};
//+
Line(65) = {54, 55};
//+
Line(66) = {55, 56};
//+
Line(67) = {56, 57};
//+
Line(68) = {57, 54};
//+
Line(69) = {1, 5};
//+
Line(70) = {2, 6};
//+
Line(71) = {3, 7};
//+
Line(72) = {4, 8};
//+
Line(73) = {5, 17};
//+
Line(74) = {6, 18};
//+
Line(75) = {7, 19};
//+
Line(76) = {8, 20};
//+
Line(77) = {17, 21};
//+
Line(78) = {18, 22};
//+
Line(79) = {19, 23};
//+
Line(80) = {20, 24};
//+
Line(81) = {21, 25};
//+
Line(82) = {22, 26};
//+
Line(83) = {23, 27};
//+
Line(84) = {24, 28};
//+
Line(85) = {25, 29};
//+
Line(86) = {26, 30};
//+
Line(87) = {27, 31};
//+
Line(88) = {28, 32};
//+
Line(89) = {29, 33};
//+
Line(90) = {30, 34};
//+
Line(91) = {31, 35};
//+
Line(92) = {32, 36};
//+
Line(93) = {33, 37};
//+
Line(94) = {34, 38};
//+
Line(95) = {35, 39};
//+
Line(96) = {36, 40};
//+
Line(97) = {37, 41};
//+
Line(98) = {38, 42};
//+
Line(99) = {39, 43};
//+
Line(100) = {40, 44};
//+
Line(101) = {41, 54};
//+
Line(102) = {42, 55};
//+
Line(103) = {43, 56};
//+
Line(104) = {44, 57};
//+



//+
Line(105) = {58, 59};
//+
Line(106) = {59, 60};
//+
Line(107) = {60, 61};
//+
Line(108) = {61, 58};
//+
Line(109) = {62, 63};
//+
Line(110) = {63, 64};
//+
Line(111) = {64, 65};
//+
Line(112) = {65, 62};
//+
Line(113) = {66, 67};
//+
Line(114) = {67, 68};
//+
Line(115) = {68, 69};
//+
Line(116) = {69, 66};
//+
Line(117) = {70, 71};
//+
Line(118) = {71, 72};
//+
Line(119) = {72, 73};
//+
Line(120) = {73, 70};
//+
Line(121) = {74, 75};
//+
Line(122) = {75, 76};
//+
Line(123) = {76, 77};
//+
Line(124) = {77, 74};
//+
Line(125) = {78, 79};
//+
Line(126) = {79, 82};
//+
Line(127) = {82, 83};
//+
Line(128) = {83, 78};
//+
Line(129) = {84, 85};
//+
Line(130) = {85, 86};
//+
Line(131) = {86, 87};
//+
Line(132) = {87, 84};
//+
Line(133) = {88, 89};
//+
Line(134) = {89, 90};
//+
Line(135) = {90, 91};
//+
Line(136) = {91, 88};
//+
Line(137) = {92, 93};
//+
Line(138) = {93, 94};
//+
Line(139) = {94, 95};
//+
Line(140) = {95, 92};
//+
Line(141) = {58, 62};
//+
Line(142) = {59, 63};
//+
Line(143) = {60, 64};
//+
Line(144) = {61, 65};
//+
Line(145) = {62, 66};
//+
Line(146) = {63, 67};
//+
Line(147) = {64, 68};
//+
Line(148) = {65, 69};
//+
Line(149) = {66, 70};
//+
Line(150) = {67, 71};
//+
Line(151) = {68, 72};
//+
Line(152) = {69, 73};
//+
Line(153) = {70, 74};
//+
Line(154) = {71, 75};
//+
Line(155) = {72, 76};
//+
Line(156) = {73, 77};
//+
Line(157) = {74, 78};
//+
Line(158) = {75, 79};
//+
Line(159) = {76, 82};
//+
Line(160) = {77, 83};
//+
Line(161) = {78, 84};
//+
Line(162) = {79, 85};
//+
Line(163) = {82, 86};
//+
Line(164) = {83, 87};
//+
Line(165) = {84, 88};
//+
Line(166) = {85, 89};
//+
Line(167) = {86, 90};
//+
Line(168) = {87, 91};
//+
Line(169) = {88, 92};
//+
Line(170) = {89, 93};
//+
Line(171) = {90, 94};
//+
Line(172) = {91, 95};
//+
Line Loop(1) = {1, 2, 3, 4};
//+
Line Loop(2) = {105, 106, 107, 108};
//+
Plane Surface(1) = {1, 2};
//+
Line Loop(3) = {105, 106, 107, 108};
//+
Line Loop(4) = {29, 30, 31, 32};
//+
Plane Surface(2) = {3, 4};




//+
Line Loop(5) = {117, 118, 119, 120};
//+
Line Loop(6) = {41, 42, 43, 44};
//+
Plane Surface(3) = {5, 6};
//+
Line Loop(7) = {41, 42, 43, 44};
//+
Plane Surface(4) = {7};
//+
Line Loop(8) = {5, 6, 7, 8};
//+
Line Loop(9) = {121, 122, 123, 124};
//+
Plane Surface(5) = {8, 9};
//+
Line Loop(10) = {121, 122, 123, 124};
//+
Line Loop(11) = {45, 46, 47, 48};
//+
Plane Surface(6) = {10, 11};
//+
Line Loop(12) = {45, 46, 47, 48};
//+
Plane Surface(7) = {12};
//+
Line Loop(13) = {9, 10, 11, 12};
//+
Line Loop(14) = {125, 126, 127, 128};
//+
Plane Surface(8) = {13, 14};
//+
Line Loop(15) = {125, 126, 127, 128};
//+
Line Loop(16) = {49, 50, 51, 52};
//+
Plane Surface(9) = {15, 16};
//+
Line Loop(17) = {49, 50, 51, 52};
//+
Plane Surface(10) = {17};
//+
Line Loop(18) = {129, 130, 131, 132};
//+
Line Loop(19) = {53, 54, 55, 56};
//+
Plane Surface(11) = {18, 19};
//+
Line Loop(20) = {53, 54, 55, 56};
//+
Plane Surface(12) = {20};
//+
Line Loop(21) = {133, 134, 135, 136};
//+
Line Loop(22) = {57, 58, 59, 60};
//+
Plane Surface(13) = {21, 22};
//+
Line Loop(23) = {57, 58, 59, 60};
//+
Plane Surface(14) = {23};
//+
Line Loop(24) = {13, 14, 15, 16};
//+
Line Loop(25) = {137, 138, 139, 140};
//+
Plane Surface(15) = {24, 25};
//+
Line Loop(26) = {137, 138, 139, 140};
//+
Line Loop(27) = {61, 62, 63, 64};
//+
Plane Surface(16) = {26, 27};
//+
Line Loop(28) = {61, 62, 63, 64};
//+
Plane Surface(17) = {28};
//+
Line Loop(29) = {65, 66, 67, 68};
//+
Plane Surface(18) = {29};
//+
Line Loop(30) = {1, 18, -5, -17};
//+
Plane Surface(19) = {30};
//+
Line Loop(31) = {2, 19, -6, -18};
//+
Plane Surface(20) = {31};
//+
Line Loop(32) = {3, 20, -7, -19};
//+
Plane Surface(21) = {32};
//+
Line Loop(33) = {4, 17, -8, -20};
//+
Plane Surface(22) = {33};
//+
Line Loop(34) = {5, 22, -9, -21};
//+
Plane Surface(23) = {34};
//+
Line Loop(35) = {6, 23, -10, -22};
//+
Plane Surface(24) = {35};
//+
Line Loop(36) = {7, 24, -11, -23};
//+
Plane Surface(25) = {36};
//+
Line Loop(37) = {8, 21, -12, -24};
//+
Plane Surface(26) = {37};
//+
Line Loop(38) = {9, 26, -13, -25};
//+
Plane Surface(27) = {38};
//+
Line Loop(39) = {10, 27, -14, -26};
//+
Plane Surface(28) = {39};
//+
Line Loop(40) = {11, 28, -15, -27};
//+
Plane Surface(29) = {40};
//+
Line Loop(41) = {12, 25, -16, -28};
//+
Plane Surface(30) = {41};
//+
Line Loop(42) = {105, 142, -109, -141};
//+
Plane Surface(31) = {42};
//+
Line Loop(43) = {106, 143, -110, -142};
//+
Plane Surface(32) = {43};
//+
Line Loop(44) = {107, 144, -111, -143};
//+
Plane Surface(33) = {44};
//+
Line Loop(45) = {108, 141, -112, -144};
//+
Plane Surface(34) = {45};
//+
Line Loop(46) = {29, 70, -33, -69};
//+
Plane Surface(35) = {46};
//+
Line Loop(47) = {30, 71, -34, -70};
//+
Plane Surface(36) = {47};
//+
Line Loop(48) = {31, 72, -35, -71};
//+
Plane Surface(37) = {48};
//+
Line Loop(49) = {32, 69, -36, -72};
//+
Plane Surface(38) = {49};
//+
Line Loop(50) = {109, 146, -113, -145};
//+
Plane Surface(39) = {50};
//+
Line Loop(51) = {110, 147, -114, -146};
//+
Plane Surface(40) = {51};
//+
Line Loop(52) = {111, 148, -115, -147};
//+
Plane Surface(41) = {52};
//+
Line Loop(53) = {112, 145, -116, -148};
//+
Plane Surface(42) = {53};
//+
Line Loop(54) = {113, 114, 115, 116};
//+
Line Loop(55) = {37, 38, 39, 40};
//+
Plane Surface(43) = {54, 55};
//+
Line Loop(56) = {37, 38, 39, 40};
//+
Plane Surface(44) = {56};
//+
Line Loop(57) = {113, 150, -117, -149};
//+
Plane Surface(45) = {57};
//+
Line Loop(58) = {114, 151, -118, -150};
//+
Plane Surface(46) = {58};
//+
Line Loop(59) = {115, 152, -119, -151};
//+
Plane Surface(47) = {59};
//+
Line Loop(60) = {116, 149, -120, -152};
//+
Plane Surface(48) = {60};
//+
Line Loop(61) = {33, 74, -37, -73};
//+
Plane Surface(49) = {61};
//+
Line Loop(62) = {34, 75, -38, -74};
//+
Plane Surface(50) = {62};
//+
Line Loop(63) = {35, 76, -39, -75};
//+
Plane Surface(51) = {63};
//+
Line Loop(64) = {36, 73, -40, -76};
//+
Plane Surface(52) = {64};
//+
Line Loop(65) = {37, 78, -41, -77};
//+
Plane Surface(53) = {65};
//+
Line Loop(66) = {38, 79, -42, -78};
//+
Plane Surface(54) = {66};
//+
Line Loop(67) = {39, 80, -43, -79};
//+
Plane Surface(55) = {67};
//+
Line Loop(68) = {40, 77, -44, -80};
//+
Plane Surface(56) = {68};
//+
Line Loop(69) = {117, 154, -121, -153};
//+
Plane Surface(57) = {69};
//+
Line Loop(70) = {118, 155, -122, -154};
//+
Plane Surface(58) = {70};
//+
Line Loop(71) = {119, 156, -123, -155};
//+
Plane Surface(59) = {71};
//+
Line Loop(72) = {120, 153, -124, -156};
//+
Plane Surface(60) = {72};
//+
Line Loop(73) = {41, 82, -45, -81};
//+
Plane Surface(61) = {73};
//+
Line Loop(74) = {42, 83, -46, -82};
//+
Plane Surface(62) = {74};
//+
Line Loop(75) = {43, 84, -47, -83};
//+
Plane Surface(63) = {75};
//+
Line Loop(76) = {44, 81, -48, -84};
//+
Plane Surface(64) = {76};
//+
Line Loop(77) = {121, 158, -125, -157};
//+
Plane Surface(65) = {77};
//+
Line Loop(78) = {122, 159, -126, -158};
//+
Plane Surface(66) = {78};
//+
Line Loop(79) = {123, 160, -127, -159};
//+
Plane Surface(67) = {79};
//+
Line Loop(80) = {124, 157, -128, -160};
//+
Plane Surface(68) = {80};
//+
Line Loop(81) = {125, 162, -129, -161};
//+
Plane Surface(69) = {81};
//+
Line Loop(82) = {126, 163, -130, -162};
//+
Plane Surface(70) = {82};
//+
Line Loop(83) = {127, 164, -131, -163};
//+
Plane Surface(71) = {83};
//+
Line Loop(84) = {128, 161, -132, -164};
//+
Plane Surface(72) = {84};
//+
Line Loop(85) = {49, 90, -53, -89};
//+
Plane Surface(73) = {85};
//+
Line Loop(86) = {50, 91, -54, -90};
//+
Plane Surface(74) = {86};
//+
Line Loop(87) = {51, 92, -55, -91};
//+
Plane Surface(75) = {87};
//+
Line Loop(88) = {52, 89, -56, -92};
//+
Plane Surface(76) = {88};
//+
Line Loop(89) = {129, 166, -133, -165};
//+
Plane Surface(77) = {89};
//+
Line Loop(90) = {130, 167, -134, -166};
//+
Plane Surface(78) = {90};
//+
Line Loop(91) = {131, 168, -135, -167};
//+
Plane Surface(79) = {91};
//+
Line Loop(92) = {132, 165, -136, -168};
//+
Plane Surface(80) = {92};
//+
Line Loop(93) = {53, 94, -57, -93};
//+
Plane Surface(81) = {93};
//+
Line Loop(94) = {54, 95, -58, -94};
//+
Plane Surface(82) = {94};
//+
Line Loop(95) = {55, 96, -59, -95};
//+
Plane Surface(83) = {95};
//+
Line Loop(96) = {56, 93, -60, -96};
//+
Plane Surface(84) = {96};
//+
Line Loop(97) = {133, 170, -137, -169};
//+
Plane Surface(85) = {97};
//+
Line Loop(98) = {134, 171, -138, -170};
//+
Plane Surface(86) = {98};
//+
Line Loop(99) = {135, 172, -139, -171};
//+
Plane Surface(87) = {99};
//+
Line Loop(100) = {136, 169, -140, -172};
//+
Plane Surface(88) = {100};
//+
Line Loop(101) = {57, 98, -61, -97};
//+
Plane Surface(89) = {101};
//+
Line Loop(102) = {58, 99, -62, -98};
//+
Plane Surface(90) = {102};
//+
Line Loop(103) = {59, 100, -63, -99};
//+
Plane Surface(91) = {103};
//+
Line Loop(104) = {60, 97, -64, -100};
//+
Plane Surface(92) = {104};
//+
Line Loop(105) = {61, 102, -65, -101};
//+
Plane Surface(93) = {105};
//+
Line Loop(106) = {62, 103, -66, -102};
//+
Plane Surface(94) = {106};
//+
Line Loop(107) = {63, 104, -67, -103};
//+
Plane Surface(95) = {107};
//+
Line Loop(108) = {64, 101, -68, -104};
//+
Plane Surface(96) = {108};
//+
Line Loop(109) = {29, 30, 31, 32};
//+
Plane Surface(97) = {109};
//+
Line Loop(110) = {105, 106, 107, 108};
//+
Line Loop(111) = {29, 30, 31, 32};
//+
Plane Surface(98) = {110, 111};

//+
Line Loop(112) = {109, 110, 111, 112};
//+
Line Loop(113) = {33, 34, 35, 36};
//+
Plane Surface(99) = {112, 113};
//+
Line Loop(114) = {33, 34, 35, 36};
//+
Plane Surface(100) = {114};
//+
Surface Loop(1) = {35, 36, 37, 38, 97, 100};
//+
Volume(1) = {1};
//+
Surface Loop(2) = {100, 51, 52, 49, 50, 44};
//+
Volume(2) = {2};
//+
Surface Loop(3) = {44, 54, 55, 56, 53, 4};
//+
Volume(3) = {3};
//+
Surface Loop(4) = {4, 62, 63, 64, 61, 7};
//+
Volume(4) = {4};
//+
Line Loop(115) = {45, 86, -49, -85};
//+
Plane Surface(101) = {115};
//+
Line Loop(116) = {46, 87, -50, -86};
//+
Plane Surface(102) = {116};
//+
Line Loop(117) = {47, 88, -51, -87};
//+
Plane Surface(103) = {117};
//+
Line Loop(118) = {48, 85, -52, -88};
//+
Plane Surface(104) = {118};
//+
Surface Loop(5) = {7, 104, 101, 102, 103, 10};
//+
Volume(5) = {5};
//+
Surface Loop(6) = {10, 73, 74, 75, 76, 12};
//+
Volume(6) = {6};
//+
Surface Loop(7) = {12, 81, 82, 83, 84, 14};
//+
Volume(7) = {7};
//+
Surface Loop(8) = {14, 91, 92, 89, 90, 17};
//+
Volume(8) = {8};
//+
Surface Loop(9) = {17, 93, 94, 95, 96, 18};
//+
Volume(9) = {9};
//+
Surface Loop(10) = {34, 31, 32, 33, 35, 36, 37, 38, 2, 52, 49, 50, 51, 42, 39, 40, 41, 45, 46, 47, 48, 56, 53, 54, 55, 60, 57, 58, 59, 64, 61, 62, 63, 104, 101, 102, 103, 68, 65, 66, 67, 75, 76, 73, 74, 71, 72, 69, 70, 77, 78, 79, 80, 81, 82, 83, 84, 91, 92, 89, 90, 87, 88, 85, 86, 16};
//+
Volume(10) = {10};
//+
Surface Loop(11) = {19, 1, 20, 21, 22, 5, 45, 46, 47, 48, 39, 40, 41, 42, 31, 32, 33, 34, 57, 58, 59, 60};
//+
Volume(11) = {11};
//+
Surface Loop(12) = {23, 24, 25, 26, 5, 8, 68, 65, 66, 67};
//+
Volume(12) = {12};
//+
Surface Loop(13) = {27, 28, 29, 30, 15, 8, 85, 86, 87, 88, 80, 77, 78, 79, 72, 69, 70, 71};
//+
Volume(13) = {13};
//+
Physical Volume(1) = {1}; //Source
//+
Physical Volume(2) = {2, 3, 4, 5, 6, 7, 8}; //Beamline
//+
Physical Volume(3) = {9}; //Detector
//+
Physical Volume(4) = {10}; //Guide
//+
Physical Volume(5) = {11}; //Shield 1
//+
Physical Volume(6) = {13}; //Void
//+
Physical Volume(7) = {12}; //Shield 2

Physical Surface(173) = {23, 19, 27, 15, 24, 28, 20, 21, 25, 29, 30, 26, 22, 1, 16, 93, 18, 95, 94, 96, 97, 2};
